<mxfile host="app.diagrams.net" modified="2024-03-23T14:13:42.664Z" agent="Mozilla/5.0 (Windows NT 10.0; Win64; x64) AppleWebKit/537.36 (KHTML, like Gecko) Chrome/123.0.0.0 Safari/537.36" version="24.0.9" etag="ctmy-e64nMu6Lf79ceL_" type="github">
  <diagram name="PÃ¡gina-1" id="zTRKnsU_blpJpjNjFeuo">
    <mxGraphModel>
      <root>
        <mxCell id="0" />
        <mxCell id="1" parent="0" />
      </root>
    </mxGraphModel>
  </diagram>
</mxfile>
